<svg xmlns="http://www.w3.org/2000/svg" width="150mm" height="150mm" viewBox="0 0 425.2 425.2"><defs><style>.cls-1{fill:#992d33;}.cls-2{fill:#f16562;}.cls-3{fill:#1f2530;}.cls-4{fill:#cdc8c7;}.cls-5{fill:#fff;}.cls-6{fill:#e5e2e2;}.cls-7{fill:#f0483e;}.cls-8{fill:none;stroke:#1f2530;stroke-linecap:round;stroke-linejoin:round;stroke-width:2px;}.cls-9{fill:#1f2531;}</style></defs><title>200306_SentryR_Santiago_Logo</title><g id="Layer_3" data-name="Layer 3"><path class="cls-1" d="M387.05,113.92v203L211.25,418.42a92.39,92.39,0,0,0,1.26-10.93c.26-3.64.34-7.27.37-10.91s-.11-7.29-.36-10.93a94.82,94.82,0,0,0-1.27-10.93l138-79.65V135.77h0a93,93,0,0,0,10.06-4.35c3.29-1.6,6.47-3.35,9.64-5.14s6.26-3.75,9.28-5.79A95.34,95.34,0,0,0,387,114a0,0,0,0,1,0,0Z"/><path class="cls-2" d="M211.25,56.12l-138,79.65a88,88,0,0,0-8.82-6.56c-3-2.06-6.14-3.94-9.29-5.79s-6.36-3.54-9.64-5.14a88.09,88.09,0,0,0-10.1-4.36L211.25,12.41l175.8,101.51h0A90.7,90.7,0,0,0,377,118.26c-3.28,1.6-6.47,3.37-9.66,5.16s-6.25,3.73-9.27,5.77a89.47,89.47,0,0,0-8.79,6.55l0,0h0Z"/><path class="cls-3" d="M387,113.93a0,0,0,0,0,0,0,.11.11,0,0,0-.09,0Z"/><path class="cls-3" d="M387,113.93l-.11.07a.75.75,0,0,0-.2.1l-.21.13c-.26.13-.57.31-.95.54-5.13,2.92-21.17,12.21-30.15,17.41l-2.4,1.39-.53.31a.3.3,0,0,0-.11.06l-2.21,1.28-.27.16-.4.23-.08,0-.16.08a89.47,89.47,0,0,1,8.79-6.55c3-2,6.14-3.92,9.27-5.77s6.38-3.56,9.66-5.16A90.7,90.7,0,0,1,387,113.93Z"/><path class="cls-3" d="M386.92,114a.11.11,0,0,1,.09,0,95.34,95.34,0,0,1-8.8,6.53c-3,2-6.14,3.94-9.28,5.79s-6.35,3.54-9.64,5.14a93,93,0,0,1-10.06,4.35l0,0,.16-.08.08,0,.4-.23.27-.16,2.21-1.28a.3.3,0,0,1,.11-.06l.53-.31,2.4-1.39,30.15-17.41.95-.54.21-.13A.75.75,0,0,1,386.92,114Z"/><path class="cls-3" d="M386.51,114.23l-.95.54C385.94,114.54,386.25,114.36,386.51,114.23Z"/><path class="cls-3" d="M385.56,114.77l-30.15,17.41C364.39,127,380.43,117.69,385.56,114.77Z"/><path class="cls-3" d="M355.41,132.18l-2.4,1.39Z"/><polygon class="cls-4" points="349.2 135.77 349.2 295.07 211.26 227.95 211.25 227.95 211.25 56.12 349.2 135.77"/><polygon class="cls-5" points="211.25 227.95 211.26 227.95 349.2 295.07 211.25 374.72 73.28 295.07 211.25 227.95"/><path class="cls-3" d="M212.52,385.65c.25,3.64.33,7.29.36,10.93s-.11,7.27-.37,10.91a92.39,92.39,0,0,1-1.26,10.93v-43.7A94.82,94.82,0,0,1,212.52,385.65Z"/><path class="cls-3" d="M211.25,374.72v43.7A92.45,92.45,0,0,1,210,407.49c-.26-3.64-.32-7.27-.36-10.91s.1-7.29.36-10.93A88.67,88.67,0,0,1,211.25,374.72Z"/><polygon class="cls-6" points="211.25 56.12 211.25 227.95 73.28 295.07 73.28 135.77 211.25 56.12"/><path class="cls-7" d="M73.28,295.07l138,79.65A88.67,88.67,0,0,0,210,385.65c-.26,3.64-.34,7.29-.36,10.93s.1,7.27.36,10.91a92.45,92.45,0,0,0,1.28,10.93L35.43,316.93v-203a97.32,97.32,0,0,0,8.82,6.56c3,2,6.15,3.92,9.28,5.77s6.37,3.56,9.66,5.16a91.6,91.6,0,0,0,10.09,4.36Z"/><path class="cls-3" d="M73.28,135.77,35.43,113.92a88.09,88.09,0,0,1,10.1,4.36c3.28,1.6,6.47,3.35,9.64,5.14s6.27,3.73,9.29,5.79A88,88,0,0,1,73.28,135.77Z"/><path class="cls-3" d="M35.43,113.92l37.85,21.85a91.6,91.6,0,0,1-10.09-4.36c-3.29-1.6-6.49-3.36-9.66-5.16s-6.25-3.73-9.28-5.77A97.32,97.32,0,0,1,35.43,113.92Z"/><polygon class="cls-8" points="211.25 418.42 387.05 316.93 387.05 113.92 211.25 12.41 35.43 113.92 35.43 316.93 211.25 418.42"/><polygon class="cls-8" points="349.2 295.07 349.2 135.77 211.25 56.12 73.28 135.77 73.28 295.07 211.25 374.72 349.2 295.07"/><path class="cls-5" d="M294.82,343.44a4.15,4.15,0,0,0-3.33.46c-1.44.74-3.06,2.16-2.95,3.54s1.5,1,3.53.47c2.31-.59,5.25-1.28,5.49,1.58.27,3.15-2.57,6.2-6,7.94-2.3,1.14-4.74,1.58-6.25.91l2.11-2.82a4.63,4.63,0,0,0,4-.33c1.47-.74,3.14-2.21,3-3.77s-2-1-4.26-.45-4.58.84-4.78-1.8c-.22-2.86,2.95-5.79,6.12-7.45a8.66,8.66,0,0,1,5.23-1.17Z"/><path class="cls-5" d="M311.85,342l-9,4.87c.24,1.35,1.87,1.59,3.6.67a7,7,0,0,0,3-3l2.09.28a11.39,11.39,0,0,1-4.91,4.77c-3.67,1.93-6.58,1.36-6.85-1.88s2.26-6.71,5.85-8.65c3.3-1.82,5.86-1.36,6.17,2.26C311.83,341.54,311.85,341.75,311.85,342Zm-3.09-.19c-.11-1.29-1.07-1.94-3-.89-1.75.95-3.07,2.72-3.08,4.17Z"/><path class="cls-5" d="M314.23,334.58,317,333l.13,1.61,0,0a8.15,8.15,0,0,1,3.49-4c3.06-1.78,4.51-.5,4.69,1.58l.58,6.44L323,340.26l-.51-5.69c-.11-1.21-.56-2.53-2.45-1.44a4.8,4.8,0,0,0-2.51,4.31l.5,5.62-2.95,1.63Z"/><path class="cls-5" d="M327,329.34l-.18-2,2.05-1.22-.25-2.94,2.87-1.74.26,3,2.92-1.78.18,2.06-2.92,1.77.44,4.8c.08.93.39,1.46,1.68.69a6.19,6.19,0,0,0,1.23-1l.29,2a11.58,11.58,0,0,1-1.93,1.45c-3.1,1.82-4,.54-4.15-1.45l-.44-4.8Z"/><path class="cls-5" d="M336.74,321.28l2.79-1.73.15,1.72.05,0a8,8,0,0,1,3.21-4.15,5.5,5.5,0,0,1,.7-.38l.22,2.38a5.77,5.77,0,0,0-.9.45,5.5,5.5,0,0,0-2.87,4.75l.53,5.64-2.92,1.76Z"/><path class="cls-5" d="M343.81,316.85l3.21-2,4,5.59,0,0,2.14-9.55,3-2L352,325.34a8.45,8.45,0,0,1-4.1,5.83,9.44,9.44,0,0,1-1.52.77v-2.48a5.16,5.16,0,0,0,1.11-.52,4,4,0,0,0,1.89-3l.45-1.73Z"/><path class="cls-5" d="M357.57,302.6l5.88-4c3.18-2.2,6.34-3.17,6.66.17.22,2.28-1.13,4.83-3.45,6.95l5.24,4-3.64,2.47-4.61-4.14-2.2,1.48.66,6.75-3,2Zm6.12,3c1.7-1.15,3.6-2.86,3.41-4.77-.16-1.71-2-.88-3.57.19l-2.72,1.86.42,4.39Z"/><path class="cls-9" d="M319.93,101a676.81,676.81,0,0,1,2.77,84.37c-1.64,51.21-9.74,84.15-24.05,97.94,0,0,0,0,0,0a6.72,6.72,0,0,1-1.25,1.37,7.4,7.4,0,0,1-4.62,1.58,6.72,6.72,0,0,1-1.09-.07l-35.75-3.41c4.39,14.23,6.5,20.44,7.44,23.15l.39,1.15a22.74,22.74,0,0,1,1.12,4.62l-2.24-.63a30.36,30.36,0,0,0-.92-3.29l-.39-1.14c-.95-2.77-3.15-9.2-7.72-24.08l-31.14-3c.13.67.24,1.31.37,1.92-.73,0-1.48,0-2.2,0-.14-.67-.27-1.37-.41-2.12l-90.74-8.65h-.05a7.11,7.11,0,0,1-4.76-2.8,5.91,5.91,0,0,1-1-4.48l20.68-134.85a6.46,6.46,0,0,1,4.21-4.88L306.16,82.36a7.44,7.44,0,0,1,6.87.89C313.82,83.65,318.2,86.43,319.93,101ZM299.86,278.82c27.84-34.14,21.2-149.77,17.92-177.52a46.87,46.87,0,0,0-2.27-10.48ZM313.55,88.57a3.85,3.85,0,0,0-1.6-3.42,5.33,5.33,0,0,0-5.14-.7L149.19,125.86a4.27,4.27,0,0,0-2.73,3.16L125.77,263.88a3.64,3.64,0,0,0,.67,2.81,4.84,4.84,0,0,0,3.28,1.92L254,280.46h0a1.06,1.06,0,0,1,.86.1l37,3.53a5.33,5.33,0,0,0,4.12-1.05,4,4,0,0,0,1.52-2.74Z"/><path class="cls-6" d="M317.78,101.3c3.28,27.75,9.92,143.38-17.92,177.52l15.65-188A46.87,46.87,0,0,1,317.78,101.3Z"/><path class="cls-5" d="M130.33,262.26l-.25,1.62L291.4,278.66l.37,0,0-.38L307.94,91.24l.06-.79-.76.19L150.3,130.79l-.23.06,0,.23ZM312,85.15a3.85,3.85,0,0,1,1.6,3.42l-16,191.72a4,4,0,0,1-1.52,2.74,5.33,5.33,0,0,1-4.12,1.05l-37-3.53a1.06,1.06,0,0,0-.86-.1h0L129.72,268.61a4.84,4.84,0,0,1-3.28-1.92,3.64,3.64,0,0,1-.67-2.81L146.46,129a4.27,4.27,0,0,1,2.73-3.16L306.81,84.45A5.33,5.33,0,0,1,312,85.15Z"/><polygon class="cls-9" points="308 90.45 307.94 91.24 291.81 278.31 291.77 278.69 291.39 278.66 130.08 263.88 291.08 277.86 306.75 91.94 150.7 131.43 130.33 262.26 150.04 131.08 150.07 130.85 150.3 130.79 307.24 90.64 308 90.45"/><polygon class="cls-6" points="306.75 91.94 291.08 277.86 130.08 263.88 130.33 262.26 289.24 274.91 304.05 95.41 150.7 131.43 306.75 91.94"/><polygon class="cls-5" points="304.05 95.41 289.24 274.91 130.33 262.26 150.7 131.43 304.05 95.41"/><path class="cls-4" d="M280.76,316.16c1.79.5,4,2.2,2.92,3.69a2.84,2.84,0,0,1-1.45.85,165.11,165.11,0,0,1-17.33,4.36l-11.23,2.4a100.24,100.24,0,0,1-11,1.92,82.39,82.39,0,0,1-9.94.28,105,105,0,0,1-22.47-2.37h1.25c6.14,0,13.64-1.37,28.91-4.43l.66-.13c15.45-3.11,21.24-4.26,23.17-7.64a5.52,5.52,0,0,0,.62-3.34Z"/><path class="cls-9" d="M253.35,317.93c5.35-1.27,8.15-2.35,9-3.92a4.23,4.23,0,0,0,.25-2.88l2.24.63a5.52,5.52,0,0,1-.62,3.34c-1.93,3.38-7.72,4.53-23.17,7.64l-.66.13c-15.27,3.06-22.77,4.43-28.91,4.43h-1.26a57.73,57.73,0,0,1-8.1-2.57l.14-.68c9.65,2,14.31,1.38,37.71-3.31l.66-.14C245.94,319.53,250.12,318.7,253.35,317.93Z"/><path class="cls-6" d="M262.64,311.13a4.23,4.23,0,0,1-.25,2.88c-.89,1.57-3.69,2.65-9,3.92a2.79,2.79,0,0,0,.09-1.59,4.17,4.17,0,0,0-1.38-2.19c2.06.25,4.13.45,6.19.6q-4.26-1.2-8.6-2.08c-3-1.32-6.39-1.73-8.86-3.84s-3.42-5.38-4.3-8.47-1.7-6.05-2.56-9.08c-.67-2.45-1.43-5-3.19-6.82-2-2.1-4.92-2.76-7.9-2.89-.13-.61-.24-1.25-.37-1.92l31.14,3c4.57,14.88,6.77,21.31,7.72,24.08l.39,1.14A30.36,30.36,0,0,1,262.64,311.13Z"/><path class="cls-9" d="M258.25,314.75c-2.06-.15-4.13-.35-6.19-.6a7.74,7.74,0,0,0-1.55-1.06c-.29-.15-.57-.29-.86-.42Q254,313.55,258.25,314.75Z"/><path class="cls-5" d="M253.44,316.34a2.79,2.79,0,0,1-.09,1.59c-3.23.77-7.41,1.6-12.68,2.66l-.66.14c-23.4,4.69-28.06,5.35-37.71,3.31l-1-.22c-3.72-.83-26.64-5.09-39.37-7.45l51.5-3.7c.24,0,5.8-.17,9.49-3.79l2.43.3c2.72.66,5.43,1.34,8.15,1.88s5.46,1.08,8.2,1.56c3.45.58,6.91,1.12,10.37,1.53A4.17,4.17,0,0,1,253.44,316.34Z"/><path class="cls-9" d="M250.51,313.09a7.74,7.74,0,0,1,1.55,1.06c-3.46-.41-6.92-.95-10.37-1.53-2.74-.48-5.47-1-8.2-1.56s-5.43-1.22-8.15-1.88c2.8.09,5.58.41,8.33.77s5.52.78,8.26,1.24c2.58.45,5.16.94,7.72,1.48C249.94,312.8,250.22,312.94,250.51,313.09Z"/><path class="cls-5" d="M240.79,308.83c2.47,2.11,5.9,2.52,8.86,3.84-2.56-.54-5.14-1-7.72-1.48-2.74-.46-5.5-.9-8.26-1.24s-5.53-.68-8.33-.77l-2.43-.3c.25-.25.48-.5.71-.78,2.1-2.53,2.84-5.9,2.21-10s-1.23-7.35-3-16.52c3,.13,5.86.79,7.9,2.89,1.76,1.82,2.52,4.37,3.19,6.82.86,3,1.71,6.05,2.56,9.08S238.36,306.75,240.79,308.83Z"/><path class="cls-9" d="M225.83,298.09c.63,4.11-.11,7.48-2.21,10-.23.28-.46.53-.71.78-3.69,3.62-9.25,3.79-9.49,3.79l-51.5,3.7c12.73,2.36,35.65,6.62,39.37,7.45l1,.22-.14.68a57.73,57.73,0,0,0,8.1,2.57,49,49,0,0,1-9.43-1.35c-5-1.12-47.27-8.89-47.7-9a1.1,1.1,0,0,1-.89-1.14,1.06,1.06,0,0,1,1-1l60.08-4.33c.1,0,5.67-.18,8.65-3.79,1.68-2,2.25-4.81,1.73-8.28-.61-4-1.25-7.38-3.06-16.85.72,0,1.47,0,2.2,0C224.6,290.74,225.21,294.06,225.83,298.09Z"/><path class="cls-3" d="M251.34,209.72a.87.87,0,0,0-.22-.17,15.07,15.07,0,0,0-1.53-2.56,22.31,22.31,0,0,1,5.64,5.66c2.4,3.54,4.27,7.37,6.37,11.07A135.78,135.78,0,0,0,274.93,244c.2.27.41.54.63.79a133.87,133.87,0,0,1-14.45-20.75c-2.17-3.63-4.16-7.44-6.57-10.82A21.89,21.89,0,0,0,251.34,209.72Z"/><path class="cls-5" d="M248.92,170.38a15.79,15.79,0,0,1-2.15.56,14.13,14.13,0,0,0,3.17-.41,17.91,17.91,0,0,0,14.56-5.18,36.62,36.62,0,0,1-5,5.28,38.88,38.88,0,0,0-5,4.58,8.79,8.79,0,0,0-2.24,6.47c.43,3.53,3.56,5.86,5,9,0,0-.05,0-.07-.05a27.72,27.72,0,0,0-3.78-5.08,25.82,25.82,0,0,0-3.16-2.76,14,14,0,0,0-3.61-2.12c-1.29-.51-2.6-.78-3.89-1.18s-2.61-.75-3.95-.93a16.81,16.81,0,0,0-6,.5,13.18,13.18,0,0,0-2,.7s0,0,0,.08a.09.09,0,0,0,.08.08c2,0,4,0,6,0a43.74,43.74,0,0,1,4.88,1.65c.81.31,1.61.66,2.39,1a65.32,65.32,0,0,1,7.42,4.45,6.45,6.45,0,0,0-3.83,4c-.52,2.12.44,4.3,1.47,6.16a52.66,52.66,0,0,0,4.26,6.53c2.89,3.83,6.31,7.27,8.44,11.67a90.53,90.53,0,0,1,3.3,9.16c2.43,6.82,6.34,12.9,10.2,18.88l-.52.49a135.78,135.78,0,0,1-13.33-20.29c-2.1-3.7-4-7.53-6.37-11.07a22.31,22.31,0,0,0-5.64-5.66,16.75,16.75,0,0,0-8.88-6.51,5.86,5.86,0,0,0-2-.28,10.13,10.13,0,0,0-2.4.69,9.69,9.69,0,0,1-4,.49,3.78,3.78,0,0,1-3.38-1.93,5.53,5.53,0,0,1,.12-3.43,2.1,2.1,0,0,0,.06-.24c.78-1.68,1.64-3.38,2.6-5.11a21.24,21.24,0,0,0-1.84,2.15c.12-.48.25-.95.37-1.43a24.08,24.08,0,0,0-5.4,7.36,59.33,59.33,0,0,0-4.29,10.84l-3.39-1a59.27,59.27,0,0,0,3.45-19.28c0-6.59-1.21-13.43-3.16-22.59-.17-.75-.32-1.5-.5-2.26-.82-7.39-2.54-14.65-3.38-22.06-.45-4.06-2.54-7.44-3.86-11.17s-2.11-7.54-3.72-11c-9.61-20.67-30.7-33-51.62-32.14-4.7.2-9.64,0-14.54,0-5.06,0-9.33,1.62-14.32,1.88-7,.35-14.49-.13-20.92,4-2.28,1.45-3.91,3.1-4.5,5.73a4.92,4.92,0,0,0-.24.45c-2.06,4.41,1.18,9.31,3,11.9a82.85,82.85,0,0,0,1.84,9.71c1,3.88,4.27,6.66,8.93,7.61l.41,0c10.56,9.51,25.2,24.34,30.19,43.49,1.14,4.37,1.66,12.9,1.17,19.16a9.81,9.81,0,0,1-1.12,1.61c1.56-8.47,1.72-26.72-17.37-48.46-3.65-4.16-9.5-8.13-15.69-12.34-9.3-6.31-19.84-13.47-23.59-22.19-4.64-10.77-1.6-17.81,1.76-21.84,6.69-8,19.35-10.09,27-7,13.09,5.27,20,2.51,29.56-1.32,1.15-.46,2.37-1,3.63-1.45l2.12-.83c12.24-4.88,35-13.93,54.25,14.47,3.78,5.58,10.35,24,14.8,45.25l0,.25c.75,3.1,1.2,5.76,1.61,8.42s.75,5.35,1.26,8.51a28.29,28.29,0,0,0,6.41,14.22,59.66,59.66,0,0,1-4-9.12,3,3,0,0,1,.29-.49,4.78,4.78,0,0,1,3.12-1.66,10.08,10.08,0,0,1,3.87.06c.75.15,1.48.4,2.21.57a11.73,11.73,0,0,0,7.42-.82,9.37,9.37,0,0,0,4.12-2,16.71,16.71,0,0,0,4.94-8.27c.18-.6.34-1.2.46-1.8a18.56,18.56,0,0,1-3,12.15,15.84,15.84,0,0,1-10.08,6.76c12.82-.52,25.22-7.66,33.13-18.68-.09.73-.21,1.45-.36,2.15a22.25,22.25,0,0,1-1.1,2,51.49,51.49,0,0,1-6.48,9.08,44.58,44.58,0,0,1-8.15,7.21,33.46,33.46,0,0,1-4.68,2.68A27.41,27.41,0,0,1,248.92,170.38Zm-92-86.82c-.37.1-.73.21-1.1.33.43,0,.87,0,1.29,0l.23.24c1.35,1.15,3.21,1.15,4.91,1.1l13.91-.44c4.47-.15,9.13-.23,13.4,1A63.74,63.74,0,0,1,194.59,90a29.87,29.87,0,0,0-2.41-3.37,28.74,28.74,0,0,0-5.25-5,20.55,20.55,0,0,0-10.39-4.09,14.74,14.74,0,0,0-5.65.65,19.83,19.83,0,0,0-2.57,1.13c-.79.37-1.6.72-2.42,1.07C163,81.61,160,82.59,156.89,83.56ZM95.06,109.94c.25.2.49.37.73.54-.31-.4-.63-.82-.94-1.24-.26-.84-.5-1.71-.74-2.56a14.29,14.29,0,0,1-.75-3.83c0-2.63,1.42-5,3-7a31,31,0,0,1,8-7.06c1.79-.27,3.63-.42,5.47-.65-1.08-.23-2.17-.42-3.28-.57a20.8,20.8,0,0,0-6,0,13.87,13.87,0,0,0-8.82,4.48,11.65,11.65,0,0,0-1.93,10.5,12.15,12.15,0,0,0,2.39,4.66A18.32,18.32,0,0,0,95.06,109.94Z"/><path class="cls-3" d="M274,144.67c.81-1.53,1.6-3.11,2.45-4.63-1.24,3.38-2.45,6.81-4,10.08A46.29,46.29,0,0,0,274,144.67Z"/><path class="cls-3" d="M273.76,145.12c.08-.15.15-.3.24-.45a46.29,46.29,0,0,1-1.52,5.45,7.7,7.7,0,0,1-.33.71q-.57,1.15-1.2,2.28a38.6,38.6,0,0,0,1.28-4.89C272.76,147.2,273.24,146.14,273.76,145.12Z"/><path class="cls-3" d="M271.13,150.18a22.25,22.25,0,0,0,1.1-2,38.6,38.6,0,0,1-1.28,4.89,41.33,41.33,0,0,1-5.2,7.31,35.87,35.87,0,0,1-8.67,7.16,28.2,28.2,0,0,1-7.14,2.95,8.64,8.64,0,0,1-1-.15,27.41,27.41,0,0,0,2.9-1.23,33.46,33.46,0,0,0,4.68-2.68,44.58,44.58,0,0,0,8.15-7.21A51.49,51.49,0,0,0,271.13,150.18Z"/><path class="cls-6" d="M271,153.11a40.3,40.3,0,0,1-6.45,12.24,17.91,17.91,0,0,1-14.56,5.18,28.2,28.2,0,0,0,7.14-2.95,35.87,35.87,0,0,0,8.67-7.16A41.33,41.33,0,0,0,271,153.11Z"/><path class="cls-3" d="M257.6,191.36a12.8,12.8,0,0,1,.62,1.29.1.1,0,0,1,0,.12s-.06,0-.08,0c-1.23-1.29-2.43-2.56-3.65-3.78.91.59,1.84,1.15,2.78,1.67.11.22.23.43.35.67C257.58,191.32,257.6,191.34,257.6,191.36Z"/><path class="cls-5" d="M257.3,190.69a3.39,3.39,0,0,1,.28.62c-.12-.24-.24-.45-.35-.67C257.25,190.67,257.26,190.67,257.3,190.69Z"/><path class="cls-3" d="M252.29,186.81a47,47,0,0,0-6-5.29,9.66,9.66,0,0,0-3.65-1.49,17.54,17.54,0,0,0-3.9-.06h-1.86c-1.32-.35-2.67-.65-4-.9a16.81,16.81,0,0,1,6-.5c1.34.18,2.64.62,3.95.93s2.6.67,3.89,1.18a14,14,0,0,1,3.61,2.12,25.82,25.82,0,0,1,3.16,2.76,27.72,27.72,0,0,1,3.78,5.08c-.94-.52-1.87-1.08-2.78-1.67-.7-.71-1.4-1.41-2.11-2.11Z"/><path class="cls-3" d="M252.73,145.07c0,.25-.1.52-.16.77a.12.12,0,0,0,0-.1A4.16,4.16,0,0,0,252.73,145.07Z"/><path class="cls-3" d="M252.55,145.74a.12.12,0,0,1,0,.1c-.12.6-.28,1.2-.46,1.8a2.23,2.23,0,0,0,0-.27A11.66,11.66,0,0,0,252.55,145.74Z"/><path class="cls-3" d="M252.08,147.37a2.23,2.23,0,0,1,0,.27,16.71,16.71,0,0,1-4.94,8.27,9.37,9.37,0,0,1-4.12,2,12.66,12.66,0,0,0,3-1.83,7,7,0,0,0,.89-.56A16.41,16.41,0,0,0,252.08,147.37Z"/><path class="cls-6" d="M252.29,186.81l-.68.3a65.32,65.32,0,0,0-7.42-4.45c-.78-.38-1.58-.73-2.39-1a43.74,43.74,0,0,0-4.88-1.65h1.86a17.54,17.54,0,0,1,3.9.06,9.66,9.66,0,0,1,3.65,1.49A47,47,0,0,1,252.29,186.81Z"/><path class="cls-6" d="M251.34,209.72l-.16-.05a.45.45,0,0,0-.06-.12A.87.87,0,0,1,251.34,209.72Z"/><path class="cls-6" d="M246,156a8.16,8.16,0,0,1-4.36,1.19,13.14,13.14,0,0,1-5.41-1.32,19,19,0,0,1-6.16-4.59,21.2,21.2,0,0,0,4.71-1.57,16,16,0,0,0,4.91-3.63c2.83-3.05,4.43-7,5.63-10.94a30.92,30.92,0,0,1-4.77,8.36c.3-.48.6-1,.89-1.48A37.76,37.76,0,0,0,246.18,128a36.22,36.22,0,0,1,1.07,8.59c.22,4.93.39,10.16-1.72,14.52a16.06,16.06,0,0,0,5.53-7.18,8.74,8.74,0,0,1,1,3.45,16.41,16.41,0,0,1-5.18,8.11A7,7,0,0,1,246,156Z"/><path class="cls-6" d="M236.12,221.94c0-.18-.07-.38-.11-.57-.12-.55-.24-1.1-.4-1.63s-.25-.91-.39-1.36-.05-.72-.09-1a5.36,5.36,0,0,0-2-3.3s0,0,0,0a10.25,10.25,0,0,0-2.5-2.38,11.46,11.46,0,0,1,1.35,1.52c-.35-.23-.72-.45-1.08-.67a4.14,4.14,0,0,0-2.46-.81l-.25-.2a11.53,11.53,0,0,1,5.67-4.53,17.32,17.32,0,0,1,11.33-.75,15.73,15.73,0,0,1,6,3.36.45.45,0,0,1,.06.12,2.82,2.82,0,0,0-1.41.05,8,8,0,0,0-4,2.41,15.14,15.14,0,0,0-1.84,2.68c-6.21,11.16-6.16,25.23-3.32,37.56l-.17,0c-.65-2.73-1.2-5.46-1.62-8.22-.55-3.76-.93-7.56-1.3-11.36C237.13,229.21,236.86,225.57,236.12,221.94Z"/><path class="cls-3" d="M251.12,209.55a15.73,15.73,0,0,0-6-3.36,17.32,17.32,0,0,0-11.33.75,11.53,11.53,0,0,0-5.67,4.53,25.94,25.94,0,0,0-2.32,3.84c-.14.27-.26.54-.38.82a11.31,11.31,0,0,0-.9-1l-.27-.45-.06,0,.1-.22A27,27,0,0,1,228,209a13.7,13.7,0,0,1,2.46-2.15,12.78,12.78,0,0,1,2.87-1.38,18.5,18.5,0,0,1,12.11-.47,16.44,16.44,0,0,1,4.15,2A15.07,15.07,0,0,1,251.12,209.55Z"/><path class="cls-3" d="M248.92,170.38a8.64,8.64,0,0,0,1,.15,14.13,14.13,0,0,1-3.17.41A15.79,15.79,0,0,0,248.92,170.38Z"/><path class="cls-6" d="M240.71,200.48a16.75,16.75,0,0,1,8.88,6.51,16.44,16.44,0,0,0-4.15-2,18.5,18.5,0,0,0-12.11.47,12.78,12.78,0,0,0-2.87,1.38A13.7,13.7,0,0,0,228,209a27,27,0,0,0-3.7,5.41l-.1.22c-.52,1-1,2-1.45,3,.09-.51.18-1,.27-1.58a83.23,83.23,0,0,1,6.16-20.28,2.1,2.1,0,0,1-.06.24,5.53,5.53,0,0,0-.12,3.43,3.78,3.78,0,0,0,3.38,1.93,9.69,9.69,0,0,0,4-.49,10.13,10.13,0,0,1,2.4-.69A5.86,5.86,0,0,1,240.71,200.48Z"/><path class="cls-3" d="M240.56,143.54a30.92,30.92,0,0,0,4.77-8.36c-1.2,3.93-2.8,7.89-5.63,10.94a16,16,0,0,1-4.91,3.63,21.2,21.2,0,0,1-4.71,1.57,19,19,0,0,0,6.16,4.59,13.14,13.14,0,0,0,5.41,1.32A8.16,8.16,0,0,0,246,156a12.66,12.66,0,0,1-3,1.83,8,8,0,0,1-1.38.15,13.59,13.59,0,0,1-5.78-1.13,22,22,0,0,1-9.46-7.52,33.7,33.7,0,0,1-2.31-3.62c-.21-2.24-.44-4.49-.84-6.92,0,0,0,0,0,0a.82.82,0,0,0,.14-.26,33.48,33.48,0,0,0,4.29,9.74l.64.89a1,1,0,0,1,.36-.15h.12a16,16,0,0,0,10.11-3.83A13.3,13.3,0,0,0,240.56,143.54Z"/><path class="cls-6" d="M241.67,158a8,8,0,0,0,1.38-.15,11.73,11.73,0,0,1-7.42.82c-.73-.17-1.46-.42-2.21-.57a10.08,10.08,0,0,0-3.87-.06,4.78,4.78,0,0,0-3.12,1.66,3,3,0,0,0-.29.49,29.36,29.36,0,0,1-1-4.72c-.52-3.49-.76-6.59-1-9.74a33.7,33.7,0,0,0,2.31,3.62,22,22,0,0,0,9.46,7.52A13.59,13.59,0,0,0,241.67,158Z"/><path class="cls-6" d="M241.45,142.06c-.29.5-.59,1-.89,1.48a13.3,13.3,0,0,1-1.62,1.65A16,16,0,0,1,228.83,149h-.12a1,1,0,0,0-.36.15l-.64-.89a33.48,33.48,0,0,1-4.29-9.74,37.4,37.4,0,0,0,3.34-13.16A24.86,24.86,0,0,1,230,136.75a18.73,18.73,0,0,0,1.83-3.53,27.67,27.67,0,0,1-4.24,9.3,12.33,12.33,0,0,0,3.66-4,19.31,19.31,0,0,0,2.13-5.21,21.6,21.6,0,0,0,.61-5.19,31,31,0,0,1,.56,10.34,18.08,18.08,0,0,0-.27,3.19,1.51,1.51,0,0,0,.25.9,1.32,1.32,0,0,0,.72.35C237.33,143.47,239.86,143.54,241.45,142.06Z"/><path class="cls-3" d="M240.43,252.42c.23,1,.48,2,.73,3-.74-1.75-1.46-3.51-2-5.34s-1-3.72-1.46-5.58A97.9,97.9,0,0,1,236,233c-.35-3.68-.61-7.34-1.1-10.92a10,10,0,0,1,1.21-.15c.74,3.63,1,7.27,1.39,10.9.37,3.8.75,7.6,1.3,11.36C239.23,247,239.78,249.69,240.43,252.42Z"/><path class="cls-3" d="M236.92,180c-2,0-4,0-6,0a.09.09,0,0,1-.08-.08s0-.07,0-.08a13.18,13.18,0,0,1,2-.7C234.25,179.32,235.6,179.62,236.92,180Z"/><path class="cls-3" d="M236,221.37c0,.19.08.39.11.57a10,10,0,0,0-1.21.15c0-.15,0-.3-.06-.45a18.72,18.72,0,0,0-2.92-8.46,8.77,8.77,0,0,1,1.14.83s0,0,0,0a11.3,11.3,0,0,1,1.13,1.82,23.35,23.35,0,0,1,1,2.53,2.56,2.56,0,0,0,.39,1.36C235.77,220.27,235.89,220.82,236,221.37Z"/><path class="cls-3" d="M235.22,218.38c.14.45.27.89.39,1.36A2.56,2.56,0,0,1,235.22,218.38Z"/><path class="cls-6" d="M234.85,221.64c0,.15.05.3.06.45a7.39,7.39,0,0,0-4.4,2.58,13.55,13.55,0,0,0-1.56,2.88c-.33.77-.65,1.53-1,2.3a23.35,23.35,0,0,0,.43-5.43,12.1,12.1,0,0,0-.82-4.08,14.23,14.23,0,0,0-2.16-4.21c.12-.28.24-.55.38-.82a25.94,25.94,0,0,1,2.32-3.84l.25.2a4.14,4.14,0,0,1,2.46.81c.36.22.73.44,1.08.67v0A18.72,18.72,0,0,1,234.85,221.64Z"/><path class="cls-3" d="M231.89,132.92a37,37,0,0,0,.87-5.26,27.83,27.83,0,0,0,.1-3.17,30.13,30.13,0,0,1,1.1,3.65v0a21.6,21.6,0,0,1-.61,5.19,19.31,19.31,0,0,1-2.13,5.21,12.33,12.33,0,0,1-3.66,4,27.67,27.67,0,0,0,4.24-9.3C231.84,133.12,231.86,133,231.89,132.92Z"/><path class="cls-3" d="M233.94,127.69c0,.15,0,.3,0,.45a30.13,30.13,0,0,0-1.1-3.65,14.7,14.7,0,0,0-.2-2.26A12.11,12.11,0,0,1,233.94,127.69Z"/><path class="cls-3" d="M233.07,214a8.77,8.77,0,0,0-1.14-.83v0a11.46,11.46,0,0,0-1.35-1.52A10.25,10.25,0,0,1,233.07,214Z"/><path class="cls-6" d="M230.31,191.39c-.12.48-.25,1-.37,1.43-6.23,8.21-8.06,21.51-10.46,34.1a109.23,109.23,0,0,0-2.77,12c-.07.26-.15.51-.22.78h0c-5.35,19-12.57,31.12-21.42,36a18.82,18.82,0,0,1-16.27,1c-2.49-1-5-2.18-7.4-3.36-5.08-2.48-10.3-5-15.86-5.33v-.45c1.68,0,3.38-.27,5.11-.2a27.82,27.82,0,0,1,8.29,1.93,33.32,33.32,0,0,0,6.76,1.7,17.49,17.49,0,0,0,5.25,1.9,18.58,18.58,0,0,0,8.73-.4,23,23,0,0,0,7.74-4.33,34.9,34.9,0,0,0,3.16-3.16c.93-1.2,1.79-2.44,2.6-3.7-1.19.88-2.24,1.86-3.35,2.78l-1.72,1.27a15.43,15.43,0,0,1-1.7,1.21c-.61.35-1.18.72-1.76,1.08a17.49,17.49,0,0,1-1.83.93,22.23,22.23,0,0,1-3.75,1.5,22,22,0,0,1-4.24.84,27.43,27.43,0,0,0,17.51-10.33c4.15-5.31,6.25-11.8,8.74-18.13,2.7-6.84,5.89-14,7.06-21.34a95.64,95.64,0,0,1,2.49-11.5,59.33,59.33,0,0,1,4.29-10.84A24.08,24.08,0,0,1,230.31,191.39Z"/><path class="cls-3" d="M229.94,192.82a21.24,21.24,0,0,1,1.84-2.15c-1,1.73-1.82,3.43-2.6,5.11C229.44,194.8,229.68,193.8,229.94,192.82Z"/><path class="cls-3" d="M220.23,224.42c-.23.72-.44,1.43-.66,2.15l-.09.35c2.4-12.59,4.23-25.89,10.46-34.1-.26,1-.5,2-.76,3A83.23,83.23,0,0,0,223,216.06c-.09.53-.18,1.07-.27,1.58A67.17,67.17,0,0,0,220.23,224.42Z"/><path class="cls-3" d="M228,229.85q0,.3-.12.6a35.77,35.77,0,0,1-1.75,5.67,19.1,19.1,0,0,1-2.83,5.1c.72-1.8,1.17-3.71,1.72-5.56.35-1.3.69-2.58,1-3.88.14-.57.27-1.13.39-1.72a37.46,37.46,0,0,0,.84-5.64,14.89,14.89,0,0,0-.55-5.69,6.41,6.41,0,0,1,.92,1.61,12.1,12.1,0,0,1,.82,4.08A23.35,23.35,0,0,1,228,229.85Z"/><path class="cls-6" d="M226.67,218.73a14.89,14.89,0,0,1,.55,5.69,37.46,37.46,0,0,1-.84,5.64c-.12.59-.25,1.15-.39,1.72a19.63,19.63,0,0,0-2-5,5.39,5.39,0,0,0-.71-1.15,3.25,3.25,0,0,0-1.11-.78,57.91,57.91,0,0,1,3.27-8.74,14.23,14.23,0,0,1,2.16,4.21A6.41,6.41,0,0,0,226.67,218.73Z"/><path class="cls-3" d="M226.14,160.21a59.66,59.66,0,0,0,4,9.12,28.29,28.29,0,0,1-6.41-14.22c-.51-3.16-.85-5.84-1.26-8.51s-.86-5.32-1.61-8.42l0-.25.1,0a35.66,35.66,0,0,0,3.22,7.84c.29,3.15.53,6.25,1,9.74A29.36,29.36,0,0,0,226.14,160.21Z"/><path class="cls-3" d="M224.53,215.08a11.31,11.31,0,0,1,.9,1,57.91,57.91,0,0,0-3.27,8.74,5.52,5.52,0,0,0-.53-.18c.36-2.35.71-4.7,1.12-7.05.44-1,.93-2,1.45-3l.06,0Z"/><path class="cls-3" d="M223.28,138.83c.4,2.43.63,4.68.84,6.92a35.66,35.66,0,0,1-3.22-7.84,1.26,1.26,0,0,1,.76-1.56,1,1,0,0,1,1.24.46l0,0c.06.27.1.53.17.8s.13.8.19,1.18C223.3,138.83,223.28,138.83,223.28,138.83Z"/><path class="cls-3" d="M223.42,138.55a.82.82,0,0,1-.14.26c-.06-.38-.12-.78-.19-1.18s-.11-.53-.17-.8a1.23,1.23,0,0,1,.15.35s0,0,0,.07l0,.08C223.21,137.73,223.3,138.15,223.42,138.55Z"/><path class="cls-3" d="M104.07,100.37c.16,2.38.5,6.46,1.06,10.79a1.15,1.15,0,0,1,.09.68A80.27,80.27,0,0,0,107,121c.78,3,3.39,5.08,7.16,5.85,3.92.79,8.07-.07,10.36-2.09a5.1,5.1,0,0,0,.94-1c2.78-4,2.51-22,2.1-30.15-13.66.8-20.42,3-23.56,5.3C104,99.27,104,99.75,104.07,100.37Zm-3.91-.7a8.58,8.58,0,0,1,1.78-2.18,1.32,1.32,0,0,1,.38-.32c2.43-2,6.19-3.38,10.72-4.36A98.87,98.87,0,0,1,128.53,91c8-.4,16.62-.25,24.2,0,.29,0,.57,0,.86,0a0,0,0,0,0,0,0c.06,0,.09,0,.14,0,17.5.91,30.18,8.34,39.53,19a1.38,1.38,0,0,1,.43.5C206.57,125.48,213,146.44,217,164.47c.18.76.33,1.51.5,2.26,1.95,9.16,3.16,16,3.16,22.59a59.27,59.27,0,0,1-3.45,19.28c-1.46,4.4-3.42,9.31-6,15.1-1.47,3.38-3.15,7.05-5,11.09-4.33,9.26-13.49,21-23.11,21a11.79,11.79,0,0,1-4.94-1.1c-20.33-9.27-29.09-5.79-36.81-2.71-4,1.59-7.82,3.09-12.74,2.81-5.93-.37-9.66-2-11.06-4.84a6.67,6.67,0,0,1,0-5.43c-.13-.42-.27-.83-.41-1.3-.23.22-.47.45-.74.75-.09.11-12,14.73-8.08,25.07a8.23,8.23,0,0,1-3.08-4.88v-.08c.18-10.44,9-21.26,9.5-21.83a13.82,13.82,0,0,1,1.14-1.15c.17-.15.33-.31.5-.48-1.32-5-2.16-11.37,1.1-13.52a27.18,27.18,0,0,1,11.86-3.68c1-1.63,2.06-3.26,3-4.86-7.68-4.26-14.42-7.91-29.45-8.59-.67.17-1.34.33-2,.5-3.84,1-7.4,1.9-10.55,1.9a9.65,9.65,0,0,1-7-2.48c-3-2.82-3.37-9-.85-14.32,1.48-3.1,7.48-12.85,22.92-8.66a23.67,23.67,0,0,1,6.58-1.21c8-.3,18.49,5.18,27.56,10.82a14,14,0,0,0,1.83-.73c6.19-21.21-10.77-42.76-16.15-48.9C121.9,143,116.17,139.1,110.1,135c-9.56-6.51-20.42-13.87-24.46-23.26s-3.27-18.11,2.14-24.59c6.75-8,20-11.5,29.45-7.67,12.3,5,18.54,2.46,28-1.32q1.75-.72,3.66-1.44l2.1-.84c12.79-5.09,36.6-14.58,56.87,15.32,2.23,3.31,5,10.07,7.78,18.43a269.23,269.23,0,0,1,7.28,27.2,1,1,0,0,0-1.24-.46,1.26,1.26,0,0,0-.76,1.56l-.1,0c-4.45-21.26-11-39.67-14.8-45.25-19.25-28.4-42-19.35-54.25-14.47l-2.12.83c-1.26.49-2.48,1-3.63,1.45-9.56,3.83-16.47,6.59-29.56,1.32-7.62-3.08-20.28-1-27,7-3.36,4-6.4,11.07-1.76,21.84,3.75,8.72,14.29,15.88,23.59,22.19,6.19,4.21,12,8.18,15.69,12.34,19.09,21.74,18.93,40,17.37,48.46a9.81,9.81,0,0,0,1.12-1.61c.49-6.26,0-14.79-1.17-19.16-5-19.15-19.63-34-30.19-43.49l-.41,0c-4.66-1-7.91-3.73-8.93-7.61a82.85,82.85,0,0,1-1.84-9.71c-1.84-2.59-5.08-7.49-3-11.9A4.92,4.92,0,0,1,100.16,99.67ZM206.62,222.45h-.5a4.05,4.05,0,0,0-3.09,1.68,9.79,9.79,0,0,1-1.44,1.58,4.27,4.27,0,0,0-1.74,3.5,2,2,0,0,1-.06.28c0,.17.05.32.05.5,0,.68,0,1.65-.06,2.76-.06,2.6-.19,6.06-.29,8.89a50.21,50.21,0,0,0,4.71-8c1.73-3.69,3.27-7.06,4.65-10.19A3.76,3.76,0,0,0,206.62,222.45Zm-46.34,23c0,.37,0,.75.06,1.12a57,57,0,0,1,13.22,3.57.66.66,0,0,1,.16-.11,6.23,6.23,0,0,1,1.18-.43c.84-.24,1.33-.4,1.66-1,.09-1.76.62-11.88.7-17.54a2.33,2.33,0,0,0-.91-2l0,0c-2.83-2.3-10.8-1.63-15-.15C160.29,229.66,159.85,237.06,160.28,245.43Zm-5.4-150.5c0,.3,0,.63,0,1a1.51,1.51,0,0,1,.11.52c0,.11,0,11.65.25,17.81a2.47,2.47,0,0,0,1.19,2.07c3.12,2.11,11.14,1,14.84-.8a1.5,1.5,0,0,0,.23-.15c0,.88-.09,1.76-.17,2.63l0,.15a28.1,28.1,0,0,1-9.69,1.83,11.65,11.65,0,0,1-6.46-1.55,5.21,5.21,0,0,1-1.51-1.56c-.53,2.84-1.29,5.11-2.35,6.14-2.34,2.25-6.39,3.46-10.39,3.46a15.87,15.87,0,0,1-6.79-1.4,8,8,0,0,1-4.85-7.17c-.45,3.24-1.11,5.94-2.13,7.41-1.95,2.81-5.66,4.14-9.32,4.34,10.53,9.74,23.79,24.16,28.58,42.56a63,63,0,0,1,1.42,12.6c9.29-27.55,41.53-21.33,44.68-20.66,7.15-2.87,15.24-2.9,22.61,2.78-3.79-17.65-9.91-38.58-22.32-53.56a8,8,0,0,1-1.95,2.06l-.1-.16a19.05,19.05,0,0,0-1.17-1.88,5.22,5.22,0,0,0,1.62-1.88,53.66,53.66,0,0,0-15-11.91c.07,1,.12,2.32.13,3.75a7.39,7.39,0,0,0-1.75.11h-.53c0-1.76-.09-3.51-.23-5a54.09,54.09,0,0,0-19-4.71C154.88,94.06,154.88,94.48,154.88,94.93ZM179.8,246.06c0,.5,0,1,0,1.52a10.26,10.26,0,0,0,4.95,2.79c1.74.5,5,1,7.37-.79a33.46,33.46,0,0,0,5-4.87c.16-3.73.42-11.78.47-14.78a2.54,2.54,0,0,0-1.16-2.2,6.27,6.27,0,0,0-1.76-.85c-3.73-1.21-9.95-.55-13,.85C180.62,228.61,179.78,236.82,179.8,246.06Zm-2.48-19.33.37.27a4.94,4.94,0,0,1,1.24,1.55c.47-1.62,1.07-2.77,1.86-3.12,4.07-1.86,12.89-2.73,16.89.24a3.82,3.82,0,0,1,.55.51,7.83,7.83,0,0,1,1.87-2.36,9.15,9.15,0,0,0,1.12-1.22,6.24,6.24,0,0,1,4.81-2.66,4.26,4.26,0,0,1,.95.05,6,6,0,0,1,2.88,1.18c9.8-22.72,10-31.38,6.16-50.39-4.73-4.53-9.58-6.13-14.1-6.13-8.39,0-15.55,5.56-18.29,8a40.19,40.19,0,0,0-5.61,5.68,28.25,28.25,0,0,0-4.2,7,24.67,24.67,0,0,1-4.16,7.41,11.65,11.65,0,0,1-7,3.86,11.43,11.43,0,0,0,6.54-4.28,24,24,0,0,0,3.53-7.46,30.24,30.24,0,0,1,3.94-7.67,43.42,43.42,0,0,1,5.5-6.43,38.13,38.13,0,0,1,6.54-4.73,52.29,52.29,0,0,0-15.45.2c-13,2.3-21.16,10-24.23,22.88a17.53,17.53,0,0,1-1.45,4,.51.51,0,0,1-.07.15,11.21,11.21,0,0,1-4.66,4.69l-.1.07-.52.25c2.33,1.5,4.53,3,6.52,4.3s3.88,2.58,5.46,3.58c7,4.39,14.06,6.64,21.06,6.64.67,0,1.32,0,2-.07a36.05,36.05,0,0,0,8.89-1.45,39.43,39.43,0,0,0,8.47-3.58,51.76,51.76,0,0,0,7.74-5.34,50.16,50.16,0,0,0,6.78-6.81,53.1,53.1,0,0,1-6.41,7.29,51.93,51.93,0,0,1-7.56,5.95,42.08,42.08,0,0,1-8.53,4.29,39,39,0,0,1-9.26,2.15c-.7,0-1.4.05-2.1.05-7.4,0-14.87-2.33-22.21-7-1.6-1-3.45-2.25-5.5-3.61-10-6.7-25.2-16.8-35.4-16.38-5.63.21-10.75,2.54-13.7,6.19v0a11.28,11.28,0,0,0-3,5.14,13,13,0,0,0,0,6.39,13.46,13.46,0,0,1-1.14-6.62,13.87,13.87,0,0,1,2.38-6.58l0,0s0,0,0-.05a18.22,18.22,0,0,1,4.82-4c-11.34-1.64-15.84,5.62-17,8.1-2,4.26-1.9,9.2.29,11.25,2.63,2.45,6.43,2.16,11.17,1.12,1.37-.3,2.82-.69,4.34-1.07a73,73,0,0,1,14.43-2.65H115a35.7,35.7,0,0,1,12.36,2.11,38.41,38.41,0,0,1,10.89,6.33A36.64,36.64,0,0,0,127,208.72a32.37,32.37,0,0,0-8.17-1,36.47,36.47,0,0,0-3.77.2c-1.29.07-2.57.2-3.81.37,10.25,1.52,16.14,4.78,22.33,8.21a96.15,96.15,0,0,0,11.48,5.64,79.47,79.47,0,0,0,15.77,4.25C164.9,225.05,173.29,223.94,177.32,226.73ZM140.4,246.65a16,16,0,0,0,2.32,2.14s0,0,0,0a33.2,33.2,0,0,1,14.46-2.58c-.1-3-.31-10.71-.25-15.67a2.43,2.43,0,0,0-1.05-2.11l-.13-.1c-3.12-2.2-11-1.52-14.74,0-2.35,1-2.61,7.82-2,13.82.2,1.51.35,2.66.41,3.19C139.61,245.66,139.93,246.11,140.4,246.65Zm8.75-124.94a9.25,9.25,0,0,0,.74-.61c2.5-2.38,3-17.7,2.69-27.57-8.28-.32-15.25-.32-21.1-.1v1.2c0,5,0,16.36.15,23.1a5.49,5.49,0,0,0,3.5,5C139.19,124.71,145.76,124.14,149.15,121.71ZM120.87,246.2a12.09,12.09,0,0,0,7.1,3.14c3.14.2,6.22-1.11,9.13-3.91-.1-.77-.25-1.86-.38-3.16-.51-3.92-1.33-10-2-13.84,0-.16-.06-.31-.1-.46a2.56,2.56,0,0,0-1.36-1.45c-3.37-1.67-11.17.53-14.59,2.76-1.83,1.2-1.25,6.23.09,11.19a.17.17,0,0,1,0,.07,55.14,55.14,0,0,0,1.74,5.31A3.8,3.8,0,0,0,120.87,246.2Zm58.2,6.22a9.81,9.81,0,0,0,6.2.64,18.16,18.16,0,0,1-2.43-.72,12.6,12.6,0,0,1-4.29-2.63,3.92,3.92,0,0,1-1.67,1.76C177.61,251.77,178.31,252.07,179.07,252.42ZM158.89,228.7a.43.43,0,0,0,.06-.17l-.12,0A1,1,0,0,1,158.89,228.7Zm-13.67-3.91c-.28-.12-.59-.2-.89-.32-.84-.33-1.63-.67-2.41-1a15.79,15.79,0,0,1,.54,1.9C143.29,225.14,144.24,224.94,145.22,224.79Zm-5,1.26h0c-.44-2.13-1.17-3.48-2.09-3.81A3,3,0,0,0,135,224.7a.92.92,0,0,0,0,.09A4.76,4.76,0,0,1,137,228c.11.6.2,1.25.31,1.92A5.75,5.75,0,0,1,140.24,226.05Zm-.05,23.78a18.06,18.06,0,0,1-2-2.14c-3,2.77-6.25,4.17-9.59,4.17-.26,0-.52,0-.78,0a14.1,14.1,0,0,1-8.48-3.8,3.47,3.47,0,0,0,.25.77c1,2,4.23,3.21,9.16,3.51C133.08,252.59,136.56,251.26,140.19,249.83Zm-4.67-29.52-1.11-.6a.26.26,0,0,1,0,.08c-.73,1.25-1.52,2.53-2.32,3.8.27,0,.54.11.8.18a5.15,5.15,0,0,1,.5-1.27A6.37,6.37,0,0,1,135.52,220.31ZM102.27,106.25c-.18-1.8-.32-3.42-.41-4.71A6.2,6.2,0,0,0,102.27,106.25Z"/><path class="cls-3" d="M222.16,224.87c-.25.78-.46,1.56-.67,2.35s-.47,1.78-.67,2.68c.29-1.75.55-3.48.81-5.21A5.52,5.52,0,0,1,222.16,224.87Z"/><path class="cls-3" d="M222.75,217.64c-.41,2.35-.76,4.7-1.12,7.05a10.15,10.15,0,0,0-1.4-.27A67.17,67.17,0,0,1,222.75,217.64Z"/><path class="cls-3" d="M221.63,224.69c-.26,1.73-.52,3.46-.81,5.21-.74,3.06-1.37,6.16-1.82,9.25l-.28,1.1s0,0,0,0a1.1,1.1,0,0,1-1.13.54,1.22,1.22,0,0,1-.94-1.43v0c0-.15,0-.28.07-.43,1.11-3.78,2-7.86,2.77-12l.09-.35c.22-.72.43-1.43.66-2.15A10.15,10.15,0,0,1,221.63,224.69Z"/><path class="cls-5" d="M217.23,208.6l3.39,1a95.64,95.64,0,0,0-2.49,11.5c-1.17,7.38-4.36,14.5-7.06,21.34-2.49,6.33-4.59,12.82-8.74,18.13a27.43,27.43,0,0,1-17.51,10.33,25,25,0,0,1-3.67.06,25.52,25.52,0,0,1-8-1.83,14.94,14.94,0,0,0,2.57,1.85,33.32,33.32,0,0,1-6.76-1.7,27.82,27.82,0,0,0-8.29-1.93c-1.73-.07-3.43.2-5.11.2a10,10,0,0,1-2.11-.18c-3.67-.77-5.88-1.32-9.88-.27a47.5,47.5,0,0,0-8.15,3.35c-.72,0-1.43.06-2.13.08-1.22.05-2.45,0-3.65,0a28,28,0,0,1-7-1.07,14.84,14.84,0,0,1-6.13-3.35,16.29,16.29,0,0,1-4.15-6.31,12.57,12.57,0,0,0,2.92,7.71,13.71,13.71,0,0,0,6.75,4.36,19.59,19.59,0,0,0,3.85.7,29.08,29.08,0,0,0,3.85-.1l1.39-.25-1,.3c-3.11.92-7.71,2.68-10.92,2.12a27,27,0,0,1-10.86-5.58c-4-10.34,8-25,8.08-25.07.27-.3.51-.53.74-.75.14.47.28.88.41,1.3a6.67,6.67,0,0,0,0,5.43c1.4,2.86,5.13,4.47,11.06,4.84,4.92.28,8.72-1.22,12.74-2.81,7.72-3.08,16.48-6.56,36.81,2.71a11.79,11.79,0,0,0,4.94,1.1c9.62,0,18.78-11.77,23.11-21,1.88-4,3.56-7.71,5-11.09C213.81,217.91,215.77,213,217.23,208.6Zm-86.86,58.09c.88-.27,1.75-.5,2.61-.82-.91,0-1.8.15-2.69.22s-1.79,0-2.66.08a19.1,19.1,0,0,1-5.18-.71,10.69,10.69,0,0,1-4.52-2.55,11.23,11.23,0,0,1-2.87-4.74,9.38,9.38,0,0,0,2.26,5.44,10.06,10.06,0,0,0,4.82,3.05,13.39,13.39,0,0,0,2.76.51,21.17,21.17,0,0,0,2.76,0C128.56,267,129.47,266.91,130.37,266.69Z"/><path class="cls-3" d="M219,239.15c.45-3.09,1.08-6.19,1.82-9.25C220.32,232.93,219.74,236,219,239.15Z"/><path class="cls-3" d="M219,239.15c-.05.2-.08.42-.11.62v0a1.11,1.11,0,0,1-.17.45Z"/><path class="cls-3" d="M218.71,240.29c0,.06,0,.11-.05.18-5.56,19.68-13.17,32.28-22.59,37.47a20.46,20.46,0,0,1-10,2.65,22.37,22.37,0,0,1-8-1.55c-2.58-1-5.12-2.24-7.59-3.44-8.6-4.23-16.74-8.21-26.53-1.75-8.79,5.81-19.17,8-27.08,5.61a15.93,15.93,0,0,1-10.06-8.26,14.85,14.85,0,0,1-1.49-7,8.23,8.23,0,0,0,3.08,4.88c.13.32.26.63.41.95a13.71,13.71,0,0,0,8.66,7c7.22,2.14,17.15.06,25.31-5.33A20.42,20.42,0,0,1,155.52,268c5.56.3,10.78,2.85,15.86,5.33,2.4,1.18,4.91,2.39,7.4,3.36a18.82,18.82,0,0,0,16.27-1c8.85-4.87,16.07-17,21.42-36h0c.07-.27.15-.52.22-.78,0,.15,0,.28-.07.43v0a1.22,1.22,0,0,0,.94,1.43A1.1,1.1,0,0,0,218.71,240.29Z"/><path class="cls-3" d="M216.71,238.94a109.23,109.23,0,0,1,2.77-12C218.68,231.08,217.82,235.16,216.71,238.94Z"/><path class="cls-7" d="M177.32,226.73c-4-2.79-12.42-1.68-16.45-.36a79.47,79.47,0,0,1-15.77-4.25,96.15,96.15,0,0,1-11.48-5.64c-6.19-3.43-12.08-6.69-22.33-8.21,1.24-.17,2.52-.3,3.81-.37a36.47,36.47,0,0,1,3.77-.2,32.37,32.37,0,0,1,8.17,1,36.64,36.64,0,0,1,11.21,5.13,38.41,38.41,0,0,0-10.89-6.33A35.7,35.7,0,0,0,115,205.41h-.12a73,73,0,0,0-14.43,2.65c-1.52.38-3,.77-4.34,1.07L95.54,206a13,13,0,0,1,0-6.39,11.28,11.28,0,0,1,3-5.14v0c3-3.65,8.07-6,13.7-6.19,10.2-.42,25.38,9.68,35.4,16.38,2.05,1.36,3.9,2.59,5.5,3.61,7.34,4.63,14.81,7,22.21,7,.7,0,1.4,0,2.1-.05a39,39,0,0,0,9.26-2.15,42.08,42.08,0,0,0,8.53-4.29,51.93,51.93,0,0,0,7.56-5.95,53.1,53.1,0,0,0,6.41-7.29,50.16,50.16,0,0,1-6.78,6.81,51.76,51.76,0,0,1-7.74,5.34,39.43,39.43,0,0,1-8.47,3.58,36.05,36.05,0,0,1-8.89,1.45c-.67,0-1.32.07-2,.07-7,0-14.08-2.25-21.06-6.64-1.58-1-3.42-2.23-5.46-3.58s-4.19-2.8-6.52-4.3l.52-.25.1-.07a11.21,11.21,0,0,0,4.66-4.69.51.51,0,0,0,.07-.15,17.53,17.53,0,0,0,1.45-4c3.07-12.89,11.22-20.58,24.23-22.88a52.29,52.29,0,0,1,15.45-.2,38.13,38.13,0,0,0-6.54,4.73,43.42,43.42,0,0,0-5.5,6.43,30.24,30.24,0,0,0-3.94,7.67,24,24,0,0,1-3.53,7.46,11.43,11.43,0,0,1-6.54,4.28,11.65,11.65,0,0,0,7-3.86,24.67,24.67,0,0,0,4.16-7.41,28.25,28.25,0,0,1,4.2-7,40.19,40.19,0,0,1,5.61-5.68c2.74-2.43,9.9-8,18.29-8,4.52,0,9.37,1.6,14.1,6.13,3.87,19,3.64,27.67-6.16,50.39A6,6,0,0,0,207,220a4.26,4.26,0,0,0-.95-.05,6.24,6.24,0,0,0-4.81,2.66,9.15,9.15,0,0,1-1.12,1.22,7.83,7.83,0,0,0-1.87,2.36,3.82,3.82,0,0,0-.55-.51c-4-3-12.82-2.1-16.89-.24-.79.35-1.39,1.5-1.86,3.12a4.94,4.94,0,0,0-1.24-1.55Z"/><path class="cls-6" d="M213.64,142.41c.84,7.41,2.56,14.67,3.38,22.06-4-18-10.45-39-23.29-53.91a1.38,1.38,0,0,0-.43-.5c-9.35-10.62-22-18-39.53-19-.05,0-.08,0-.14,0a0,0,0,0,1,0,0c-.29,0-.57,0-.86,0-7.58-.28-16.16-.43-24.2,0A98.87,98.87,0,0,0,113,92.81c-4.53,1-8.29,2.38-10.72,4.36a1.32,1.32,0,0,0-.38.32,8.58,8.58,0,0,0-1.78,2.18c.59-2.63,2.22-4.28,4.5-5.73,6.43-4.09,13.88-3.61,20.92-4,5-.26,9.26-1.88,14.32-1.88,4.9,0,9.84.18,14.54,0,20.92-.85,42,11.47,51.62,32.14,1.61,3.48,2.43,7.44,3.72,11S213.19,138.35,213.64,142.41Z"/><path class="cls-3" d="M192.89,113.34c12.41,15,18.53,35.91,22.32,53.56-7.37-5.68-15.46-5.65-22.61-2.78-3.15-.67-35.39-6.89-44.68,20.66a63,63,0,0,0-1.42-12.6c-4.79-18.4-18.05-32.82-28.58-42.56,3.66-.2,7.37-1.53,9.32-4.34,1-1.47,1.68-4.17,2.13-7.41a8,8,0,0,0,4.85,7.17,15.87,15.87,0,0,0,6.79,1.4c4,0,8.05-1.21,10.39-3.46,1.06-1,1.82-3.3,2.35-6.14a5.21,5.21,0,0,0,1.51,1.56,11.65,11.65,0,0,0,6.46,1.55,28.1,28.1,0,0,0,9.69-1.83l.8-.35a6,6,0,0,0,2.66-3.33,9.64,9.64,0,0,0,5,2.7,16.24,16.24,0,0,0,3.68.43,12.52,12.52,0,0,0,7.37-2.17A8,8,0,0,0,192.89,113.34Z"/><path class="cls-3" d="M210.24,270.09a16.44,16.44,0,0,1-10.65,14.08,22.83,22.83,0,0,1-8.59,1.5,26.38,26.38,0,0,1-8.45-1.42c2.84-.08,5.63-.18,8.36-.53a30.68,30.68,0,0,0,7.91-1.9,19.93,19.93,0,0,0,6.78-4.39A25.32,25.32,0,0,0,210.24,270.09Z"/><path class="cls-6" d="M206.62,222.45a3.76,3.76,0,0,1,2.23,1c-1.38,3.13-2.92,6.5-4.65,10.19a50.21,50.21,0,0,1-4.71,8c.1-2.83.23-6.29.29-8.89h0A16.64,16.64,0,0,0,206.62,222.45Z"/><path class="cls-5" d="M206.12,222.44h.5a16.64,16.64,0,0,1-6.83,10.29h0c0-1.11,0-2.08.06-2.76,0-.18-.05-.33-.05-.5a2,2,0,0,0,.06-.28,4.27,4.27,0,0,1,1.74-3.5,9.79,9.79,0,0,0,1.44-1.58A4.05,4.05,0,0,1,206.12,222.44Z"/><path class="cls-3" d="M203.17,261.28c-.81,1.26-1.67,2.5-2.6,3.7a34.9,34.9,0,0,1-3.16,3.16,23,23,0,0,1-7.74,4.33,18.58,18.58,0,0,1-8.73.4,17.49,17.49,0,0,1-5.25-1.9,31,31,0,0,0,9.13-.08,22,22,0,0,0,4.24-.84,22.23,22.23,0,0,0,3.75-1.5,17.49,17.49,0,0,0,1.83-.93c.58-.36,1.15-.73,1.76-1.08a15.43,15.43,0,0,0,1.7-1.21l1.72-1.27C200.93,263.14,202,262.16,203.17,261.28Z"/><path class="cls-6" d="M196.4,227.73a2.54,2.54,0,0,1,1.16,2.2c-.05,3-.31,11-.47,14.78a33.46,33.46,0,0,1-5,4.87c-2.4,1.81-5.63,1.29-7.37.79a10.26,10.26,0,0,1-4.95-2.79c0-.5,0-1,0-1.52a14.12,14.12,0,0,1,9.27.55,3.49,3.49,0,0,0,1.54.42,2.3,2.3,0,0,0,1.78-1.67,8.19,8.19,0,0,0,.3-2.66,73.64,73.64,0,0,1,1.95-15.82A6.27,6.27,0,0,1,196.4,227.73Z"/><path class="cls-3" d="M192.18,86.64A29.87,29.87,0,0,1,194.59,90a63.74,63.74,0,0,0-5.06-4.31A21.43,21.43,0,0,1,192.18,86.64Z"/><path class="cls-5" d="M194.64,226.88a73.64,73.64,0,0,0-1.95,15.82,8.19,8.19,0,0,1-.3,2.66,2.3,2.3,0,0,1-1.78,1.67,3.49,3.49,0,0,1-1.54-.42,14.12,14.12,0,0,0-9.27-.55c0-9.24.82-17.45,1.87-18.33C184.69,226.33,190.91,225.67,194.64,226.88Z"/><path class="cls-3" d="M190.84,115.24l.1.16a12.52,12.52,0,0,1-7.37,2.17,16.24,16.24,0,0,1-3.68-.43,9.64,9.64,0,0,1-5-2.7,6,6,0,0,1-2.66,3.33l-.8.35,0-.15c.08-.87.14-1.75.17-2.63,1-.65,1.65-2.4,2.07-4.61v0s0,0,0-.07a40.61,40.61,0,0,0,.5-7.18h.53a7.39,7.39,0,0,1,1.75-.11,44.68,44.68,0,0,1-.54,7.57s0,0,0,.07c-.2,1.91,2.3,3.21,4.52,3.74,3.22.77,7,.37,9.29-1.34A19.05,19.05,0,0,1,190.84,115.24Z"/><path class="cls-3" d="M192.18,86.64a21.43,21.43,0,0,0-2.65-.94A35.68,35.68,0,0,0,186,83.36a25.44,25.44,0,0,0-4.7-2.22,17.4,17.4,0,0,0-4.93-1.06,14,14,0,0,0-4.91.41,19,19,0,0,0-2.43.9c-.85.33-1.73.62-2.6.88a39.43,39.43,0,0,1-9.37,1.58,2.9,2.9,0,0,1-.19-.29c3.07-1,6.09-2,9-3.13.82-.35,1.63-.7,2.42-1.07a19.83,19.83,0,0,1,2.57-1.13,14.74,14.74,0,0,1,5.65-.65,20.55,20.55,0,0,1,10.39,4.09A28.74,28.74,0,0,1,192.18,86.64Z"/><path class="cls-6" d="M191.29,111.48a5.22,5.22,0,0,1-1.62,1.88,43.69,43.69,0,0,0-5.64-6.28,21.44,21.44,0,0,0-2.15-1.91,9.49,9.49,0,0,0-5.49-1.85c0-1.43-.06-2.72-.13-3.75A53.66,53.66,0,0,1,191.29,111.48Z"/><path class="cls-6" d="M186,83.36a35.68,35.68,0,0,1,3.51,2.34c-4.27-1.18-8.93-1.1-13.4-1l-13.91.44c-1.7,0-3.56,0-4.91-1.1l-.23-.24a39.43,39.43,0,0,0,9.37-1.58c.87-.26,1.75-.55,2.6-.88a19,19,0,0,1,2.43-.9,14,14,0,0,1,4.91-.41,17.4,17.4,0,0,1,4.93,1.06A25.44,25.44,0,0,1,186,83.36Z"/><path class="cls-5" d="M184,107.08a43.69,43.69,0,0,1,5.64,6.28c-2.31,1.71-6.07,2.11-9.29,1.34-2.22-.53-4.72-1.83-4.52-3.74,0,0,0,0,0-.07a44.68,44.68,0,0,0,.54-7.57,9.49,9.49,0,0,1,5.49,1.85A21.44,21.44,0,0,1,184,107.08Z"/><path class="cls-7" d="M185.27,253.06a9.81,9.81,0,0,1-6.2-.64c-.76-.35-1.46-.65-2.19-.95a3.92,3.92,0,0,0,1.67-1.76,12.6,12.6,0,0,0,4.29,2.63A18.16,18.16,0,0,0,185.27,253.06Z"/><path class="cls-3" d="M181.15,271a25,25,0,0,0,3.67-.06,31,31,0,0,1-9.13.08,14.94,14.94,0,0,1-2.57-1.85A25.52,25.52,0,0,0,181.15,271Z"/><path class="cls-6" d="M176.35,229a2.33,2.33,0,0,1,.91,2c-.08,5.66-.61,15.78-.7,17.54-.33.64-.82.8-1.66,1a6.23,6.23,0,0,0-1.18.43.66.66,0,0,0-.16.11,57,57,0,0,0-13.22-3.57c0-.37-.05-.75-.06-1.12a9.25,9.25,0,0,1,3.92-.78c1.73.13,3.4,1.13,5.12.93,2.41-.27,4.09-2.73,5-5.18a18.43,18.43,0,0,0,1-4.23c.14-1.26.15-2.54.32-3.81A16,16,0,0,1,176.35,229Z"/><path class="cls-5" d="M176.32,229l0,0a16,16,0,0,0-.78,3.33c-.17,1.27-.18,2.55-.32,3.81a18.43,18.43,0,0,1-1,4.23c-.87,2.45-2.55,4.91-5,5.18-1.72.2-3.39-.8-5.12-.93a9.25,9.25,0,0,0-3.92.78c-.43-8.37,0-15.77,1-16.58C165.52,227.37,173.49,226.7,176.32,229Z"/><path class="cls-6" d="M174.11,103.43a40.61,40.61,0,0,1-.5,7.18s0,0,0,.07v0c-.42,2.21-1.07,4-2.07,4.61a57.69,57.69,0,0,0-.37-9.38,7.75,7.75,0,0,0-.61-2.54,7.87,7.87,0,0,0-1.47-2c-1-1.08-2-2.15-3-3.21a7.1,7.1,0,0,0-1.17-1.09,6.25,6.25,0,0,0-1.61-.76c-2.7-1-5.7-2.07-8.42-1.48,0-.45,0-.87,0-1.25a54.09,54.09,0,0,1,19,4.71C174,99.92,174.1,101.67,174.11,103.43Z"/><path class="cls-5" d="M171.16,106a57.69,57.69,0,0,1,.37,9.38,1.5,1.5,0,0,1-.23.15c-3.7,1.78-11.72,2.91-14.84.8a2.47,2.47,0,0,1-1.19-2.07c-.25-6.16-.25-17.7-.25-17.81a1.51,1.51,0,0,0-.11-.52c0-.33,0-.66,0-1,2.72-.59,5.72.45,8.42,1.48a6.25,6.25,0,0,1,1.61.76,7.1,7.1,0,0,1,1.17,1.09c1,1.06,2,2.13,3,3.21a7.87,7.87,0,0,1,1.47,2A7.75,7.75,0,0,1,171.16,106Z"/><path class="cls-6" d="M157.21,246.25a33.2,33.2,0,0,0-14.46,2.58s0,0,0,0a16,16,0,0,1-2.32-2.14,21.36,21.36,0,0,1,9.73-3,2.32,2.32,0,0,0,1.6-.45,2.66,2.66,0,0,0,.64-1.3,50.46,50.46,0,0,0,2.08-8.94c.19-1.61.37-3.48,1.33-4.57l.13.1a2.43,2.43,0,0,1,1.05,2.11C156.9,235.54,157.11,243.27,157.21,246.25Z"/><path class="cls-3" d="M157.08,83.85c-.42,0-.86,0-1.29,0,.37-.12.73-.23,1.1-.33A2.9,2.9,0,0,0,157.08,83.85Z"/><path class="cls-6" d="M155.53,267.54V268a20.42,20.42,0,0,0-12.79,3.73c-8.16,5.39-18.09,7.47-25.31,5.33a13.71,13.71,0,0,1-8.66-7c-.15-.32-.28-.63-.41-.95a27,27,0,0,0,10.86,5.58c3.21.56,7.81-1.2,10.92-2.12l1-.3a20.55,20.55,0,0,0,2.33-.5c1.22-.39,2.42-.79,3.59-1.29-.55,0-1.08,0-1.61,0a47.5,47.5,0,0,1,8.15-3.35c4-1,6.21-.5,9.88.27A10,10,0,0,0,155.53,267.54Z"/><path class="cls-5" d="M155.78,228.37c-1,1.09-1.14,3-1.33,4.57a50.46,50.46,0,0,1-2.08,8.94,2.66,2.66,0,0,1-.64,1.3,2.32,2.32,0,0,1-1.6.45,21.36,21.36,0,0,0-9.73,3c-.47-.54-.79-1-1-1.24-.06-.53-.21-1.68-.41-3.19-.59-6-.33-12.86,2-13.82C144.77,226.85,152.66,226.17,155.78,228.37Z"/><path class="cls-6" d="M152.58,93.53c.28,9.87-.19,25.19-2.69,27.57a9.25,9.25,0,0,1-.74.61q.15-9,0-18a9.77,9.77,0,0,0-.58-3.78c-1-2.28-3.54-3.14-5.8-3.69a78.58,78.58,0,0,0-8.17-1.47,17.15,17.15,0,0,0-2.77-.15,2.2,2.2,0,0,0-.36,0v-1.2C137.33,93.21,144.3,93.21,152.58,93.53Z"/><path class="cls-5" d="M149.16,103.68q.14,9,0,18c-3.39,2.43-10,3-14,1a5.49,5.49,0,0,1-3.5-5c-.12-6.74-.15-18.13-.15-23.1a2.2,2.2,0,0,1,.36,0,17.15,17.15,0,0,1,2.77.15,78.58,78.58,0,0,1,8.17,1.47c2.26.55,4.77,1.41,5.8,3.69A9.77,9.77,0,0,1,149.16,103.68Z"/><path class="cls-3" d="M146.58,276c1-.82,2-1.68,3.07-2.58a13.51,13.51,0,0,1-2.31,3.86,13,13,0,0,1-3.17,2.66,10.65,10.65,0,0,1-3.67,1.42,8.43,8.43,0,0,1-2,.11,3.93,3.93,0,0,1-2-.61,5.46,5.46,0,0,0,1.85-.33c.59-.17,1.17-.44,1.75-.65a25.86,25.86,0,0,0,3.34-1.75A34.42,34.42,0,0,0,146.58,276Z"/><path class="cls-6" d="M144.33,224.47c.3.12.61.2.89.32-1,.15-1.93.35-2.76.56a15.79,15.79,0,0,0-.54-1.9C142.7,223.8,143.49,224.14,144.33,224.47Z"/><path class="cls-6" d="M140.27,226.05h0a5.75,5.75,0,0,0-3,3.85c-.11-.67-.2-1.32-.31-1.92a4.76,4.76,0,0,0-1.94-3.19.92.92,0,0,1,0-.09,3,3,0,0,1,3.17-2.46C139.1,222.57,139.83,223.92,140.27,226.05Z"/><path class="cls-7" d="M138.2,247.69a18.06,18.06,0,0,0,2,2.14c-3.63,1.43-7.11,2.76-11.43,2.49-4.93-.3-8.18-1.55-9.16-3.51a3.47,3.47,0,0,1-.25-.77,14.1,14.1,0,0,0,8.48,3.8c.26,0,.52,0,.78,0C132,251.86,135.16,250.46,138.2,247.69Z"/><path class="cls-3" d="M135.39,270.44c.53,0,1.06,0,1.61,0-1.17.5-2.37.9-3.59,1.29a20.55,20.55,0,0,1-2.33.5A42.54,42.54,0,0,0,135.39,270.44Z"/><path class="cls-6" d="M136.72,242.27c.13,1.3.28,2.39.38,3.16-2.91,2.8-6,4.11-9.13,3.91a12.09,12.09,0,0,1-7.1-3.14c.26,0,.5,0,.76,0L124,246c2.8-.16,5.93-.53,7.71-2.91,1.16-1.55,1.46-3.66,1.72-5.66.41-3.15.82-6.31,1.25-9.47,0,.15.07.3.1.46C135.39,232.31,136.21,238.35,136.72,242.27Z"/><path class="cls-5" d="M134.41,219.71l1.11.6a6.37,6.37,0,0,0-2.16,2.19,5.15,5.15,0,0,0-.5,1.27c-.26-.07-.53-.13-.8-.18.8-1.27,1.59-2.55,2.32-3.8A.26.26,0,0,0,134.41,219.71Z"/><path class="cls-3" d="M133.26,270.52c.7,0,1.41-.07,2.13-.08a42.54,42.54,0,0,1-4.31,1.79l-1.39.25a29.08,29.08,0,0,1-3.85.1,19.59,19.59,0,0,1-3.85-.7,13.71,13.71,0,0,1-6.75-4.36,12.57,12.57,0,0,1-2.92-7.71,16.29,16.29,0,0,0,4.15,6.31,14.84,14.84,0,0,0,6.13,3.35,28,28,0,0,0,7,1.07C130.81,270.49,132,270.57,133.26,270.52Z"/><path class="cls-5" d="M134.63,228c-.43,3.16-.84,6.32-1.25,9.47-.26,2-.56,4.11-1.72,5.66-1.78,2.38-4.91,2.75-7.71,2.91l-2.32.15c-.26,0-.5,0-.76,0a3.8,3.8,0,0,1-.35-.35,55.14,55.14,0,0,1-1.74-5.31.17.17,0,0,0,0-.07c-1.34-5-1.92-10-.09-11.19,3.42-2.23,11.22-4.43,14.59-2.76A2.56,2.56,0,0,1,134.63,228Z"/><path class="cls-3" d="M133,265.87c-.86.32-1.73.55-2.61.82s-1.81.32-2.71.45a21.17,21.17,0,0,1-2.76,0,13.39,13.39,0,0,1-2.76-.51,10.06,10.06,0,0,1-4.82-3.05,9.38,9.38,0,0,1-2.26-5.44,11.23,11.23,0,0,0,2.87,4.74,10.69,10.69,0,0,0,4.52,2.55,19.1,19.1,0,0,0,5.18.71c.87-.05,1.77,0,2.66-.08S132.07,265.91,133,265.87Z"/><path class="cls-6" d="M127.53,93.61c.41,8.11.68,26.16-2.1,30.15a5.1,5.1,0,0,1-.94,1c.33-3.86.66-7.7,1-11.57.41-4.68.79-9.57-.88-13.92a2.87,2.87,0,0,0-.8-1.26,2.42,2.42,0,0,0-1-.37,28.1,28.1,0,0,0-18.74,2.7c0-.62-.07-1.1-.1-1.46C107.11,96.56,113.87,94.41,127.53,93.61Z"/><path class="cls-5" d="M124.62,99.3c1.67,4.35,1.29,9.24.88,13.92-.35,3.87-.68,7.71-1,11.57-2.29,2-6.44,2.88-10.36,2.09-3.77-.77-6.38-2.9-7.16-5.85a80.27,80.27,0,0,1-1.75-9.19,1.15,1.15,0,0,0-.09-.68c-.56-4.33-.9-8.41-1.06-10.79a28.1,28.1,0,0,1,18.74-2.7,2.42,2.42,0,0,1,1,.37A2.87,2.87,0,0,1,124.62,99.3Z"/><path class="cls-3" d="M106.56,87.58c1.11.15,2.2.34,3.28.57-1.84.23-3.68.38-5.47.65C105.08,88.37,105.81,88,106.56,87.58Z"/><path class="cls-3" d="M106.56,87.58c-.75.37-1.48.79-2.19,1.22a26.14,26.14,0,0,0-3.54.73,14.3,14.3,0,0,0-7.44,4.23,10.23,10.23,0,0,0-1.91,8.38A12.8,12.8,0,0,0,93,106.5a28.92,28.92,0,0,0,1.82,2.74c.08.24.14.47.21.7a18.32,18.32,0,0,1-2.91-2.68,12.15,12.15,0,0,1-2.39-4.66,11.65,11.65,0,0,1,1.93-10.5,13.87,13.87,0,0,1,8.82-4.48A20.8,20.8,0,0,1,106.56,87.58Z"/><path class="cls-7" d="M101.86,101.54c.09,1.29.23,2.91.41,4.71A6.2,6.2,0,0,1,101.86,101.54Z"/><path class="cls-6" d="M100.83,89.53a26.14,26.14,0,0,1,3.54-.73,31,31,0,0,0-8,7.06c-1.59,2-3,4.36-3,7a14.29,14.29,0,0,0,.75,3.83c.24.85.48,1.72.74,2.56A28.92,28.92,0,0,1,93,106.5a12.8,12.8,0,0,1-1.55-4.36,10.23,10.23,0,0,1,1.91-8.38A14.3,14.3,0,0,1,100.83,89.53Z"/><path class="cls-7" d="M84.65,196.77c1.17-2.48,5.67-9.74,17-8.1a18.22,18.22,0,0,0-4.82,4s0,0,0,.05l0,0a13.87,13.87,0,0,0-2.38,6.58A13.46,13.46,0,0,0,95.54,206l.57,3.17c-4.74,1-8.54,1.33-11.17-1.12C82.75,206,82.61,201,84.65,196.77Z"/><path class="cls-3" d="M95.79,110.48c-.24-.17-.48-.34-.73-.54-.07-.23-.13-.46-.21-.7C95.16,109.66,95.48,110.08,95.79,110.48Z"/></g></svg>