<?xml version="1.0" encoding="UTF-8" standalone="no"?>
<svg
   xmlns:dc="http://purl.org/dc/elements/1.1/"
   xmlns:cc="http://creativecommons.org/ns#"
   xmlns:rdf="http://www.w3.org/1999/02/22-rdf-syntax-ns#"
   xmlns:svg="http://www.w3.org/2000/svg"
   xmlns="http://www.w3.org/2000/svg"
   xmlns:sodipodi="http://sodipodi.sourceforge.net/DTD/sodipodi-0.dtd"
   xmlns:inkscape="http://www.inkscape.org/namespaces/inkscape"
   inkscape:export-ydpi="96"
   inkscape:export-xdpi="96"
   inkscape:export-filename="/Users/santiago/Desktop/sentryr.png"
   inkscape:version="1.0beta2 (2b71d25, 2019-12-03)"
   height="842.95514"
   width="730.02057"
   sodipodi:docname="sentryr.svg"
   xml:space="preserve"
   viewBox="0 0 730.02057 842.95514"
   y="0px"
   x="0px"
   id="Layer_1"
   version="1.1"><metadata
   id="metadata146"><rdf:RDF><cc:Work
       rdf:about=""><dc:format>image/svg+xml</dc:format><dc:type
         rdf:resource="http://purl.org/dc/dcmitype/StillImage" /><dc:title></dc:title></cc:Work></rdf:RDF></metadata><defs
   id="defs144" /><sodipodi:namedview
   inkscape:current-layer="g1075"
   inkscape:window-maximized="1"
   inkscape:window-y="23"
   inkscape:window-x="0"
   inkscape:cy="464.38754"
   inkscape:cx="622.30265"
   inkscape:zoom="0.54115914"
   fit-margin-bottom="0"
   fit-margin-right="0"
   fit-margin-left="0"
   fit-margin-top="0"
   inkscape:guide-bbox="true"
   showguides="false"
   showgrid="false"
   id="namedview142"
   inkscape:window-height="806"
   inkscape:window-width="1440"
   inkscape:pageshadow="2"
   inkscape:pageopacity="0"
   guidetolerance="10"
   gridtolerance="10"
   objecttolerance="10"
   borderopacity="1"
   inkscape:document-rotation="0"
   bordercolor="#666666"
   pagecolor="#ffffff"><sodipodi:guide
     id="guide990"
     orientation="0,-1"
     position="337.66043,204.01033" /></sodipodi:namedview>







<g
   transform="translate(722.02057,208.38754)"
   id="g111">
</g>
<g
   transform="translate(722.02057,208.38754)"
   id="g113">
</g>
<g
   transform="translate(722.02057,208.38754)"
   id="g115">
</g>
<g
   transform="translate(722.02057,208.38754)"
   id="g117">
</g>
<g
   transform="translate(722.02057,208.38754)"
   id="g119">
</g>
<g
   transform="translate(722.02057,208.38754)"
   id="g121">
</g>
<g
   transform="translate(722.02057,208.38754)"
   id="g123">
</g>
<g
   transform="translate(722.02057,208.38754)"
   id="g125">
</g>
<g
   transform="translate(722.02057,208.38754)"
   id="g127">
</g>
<g
   transform="translate(722.02057,208.38754)"
   id="g129">
</g>
<g
   transform="translate(722.02057,208.38754)"
   id="g131">
</g>
<g
   transform="translate(722.02057,208.38754)"
   id="g133">
</g>
<g
   transform="translate(722.02057,208.38754)"
   id="g135">
</g>
<g
   transform="translate(722.02057,208.38754)"
   id="g137">
</g>
<g
   transform="translate(722.02057,208.38754)"
   id="g139">
</g>
<g
   transform="translate(722.02057,208.38754)"
   id="g1075"><path
     sodipodi:type="star"
     id="path154"
     sodipodi:sides="6"
     sodipodi:cx="-357.01028"
     sodipodi:cy="213.09003"
     sodipodi:r1="412.23996"
     sodipodi:r2="357.01028"
     sodipodi:arg1="1.5707963"
     sodipodi:arg2="2.0943951"
     inkscape:flatsided="true"
     inkscape:rounded="0"
     inkscape:randomized="0"
     d="M -357.01027,625.32999 -714.02056,419.21002 -714.02057,6.9700566 -357.0103,-199.14993 -1.2376972e-5,6.9700374 -1.3310448e-6,419.21 Z"
     style="fill:#fe3b24;fill-opacity:1;stroke:#000000;stroke-width:16;stroke-miterlimit:4;stroke-dasharray:none;stroke-opacity:1" /><g
     id="g988"
     transform="matrix(0.84226341,0,0,0.84226341,-572.62972,-53.990798)"><path
       id="path97"
       d="M 467.575,401.566 V 256 C 467.575,166.004 394.34,92.79 304.318,92.79 H 207.369 C 117.347,92.79 44.112,166.004 44.112,256 V 401.566 H 0 V 419.21 H 52.933 458.753 512 v -17.644 z"
       style="fill:#000000;fill-opacity:1;stroke:#000000;stroke-opacity:1"
       inkscape:connector-curvature="0" /><path
       id="path99"
       d="M 61.755,401.566 V 256 c 0,-80.265 65.322,-145.566 145.613,-145.566 h 96.949 c 80.291,0 145.613,65.3 145.613,145.566 v 145.566 z"
       style="fill:#e987a6"
       inkscape:connector-curvature="0" /><path
       id="path101"
       d="M 229.376,242.767 V 225.123 H 202.91 149.977 123.51 v 17.644 h 17.644 v 17.644 c 0,19.458 15.831,35.289 35.289,35.289 19.458,0 35.289,-15.831 35.289,-35.289 v -17.644 z"
       style="fill:#000000;fill-opacity:1"
       inkscape:connector-curvature="0" /><path
       id="path103"
       d="m 194.088,260.411 c 0,9.731 -7.913,17.644 -17.644,17.644 -9.731,0 -17.644,-7.913 -17.644,-17.644 v -17.644 h 35.289 v 17.644 z"
       style="fill:#fe3b24;fill-opacity:1"
       inkscape:connector-curvature="0" /><path
       id="path105"
       d="M 308.776,225.122 H 282.31 v 17.644 h 17.644 v 17.644 c 0,19.458 15.831,35.289 35.289,35.289 19.458,0 35.289,-15.831 35.289,-35.289 v -17.644 h 17.644 V 225.122 H 361.71 Z"
       style="fill:#000000;fill-opacity:1"
       inkscape:connector-curvature="0" /><path
       id="path107"
       d="m 352.887,260.411 c 0,9.731 -7.913,17.644 -17.644,17.644 -9.731,0 -17.644,-7.913 -17.644,-17.644 v -17.644 h 35.289 v 17.644 z"
       style="fill:#fe3b24;fill-opacity:1"
       inkscape:connector-curvature="0" /><path
       id="path109"
       d="m 249.605,308.623 -31.192,31.192 12.475,12.475 24.955,-24.954 24.955,24.955 12.475,-12.475 -31.192,-31.192 c -3.447,-3.447 -9.03,-3.447 -12.476,-0.001 z"
       style="fill:#000000;fill-opacity:1"
       inkscape:connector-curvature="0" /></g><text
     xml:space="preserve"
     style="font-style:normal;font-weight:normal;font-size:74.6667px;line-height:93.3333px;font-family:sans-serif;fill:#ffffff;fill-opacity:1;stroke:none"
     x="-475.8345"
     y="373.27283"
     id="text1060"><tspan
       style="font-style:italic;font-variant:normal;font-weight:500;font-stretch:normal;font-family:Futura;-inkscape-font-specification:'Futura Medium Italic';letter-spacing:-0.01px;word-spacing:-0.01px"
       sodipodi:role="line"
       id="tspan1062"
       x="-475.8345"
       y="373.27283">sentryr</tspan></text></g></svg>
